<?xml version="1.0" encoding="utf-8"?>
<!-- Generator: Adobe Illustrator 19.0.0, SVG Export Plug-In . SVG Version: 6.00 Build 0)  -->
<svg version="1.1" id="Layer_1" xmlns="http://www.w3.org/2000/svg" xmlns:xlink="http://www.w3.org/1999/xlink" x="0px" y="0px"
	 viewBox="1314.8 3228 207 64.8" style="enable-background:new 1314.8 3228 207 64.8;" xml:space="preserve">
<style type="text/css">
	.st0{fill:#FEBC1D;}
	.st1{fill:#2785C7;}
	.st2{fill:#FDBA13;}
	.st3{fill:#848484;}
</style>
<g id="iAJQLT_1_">
	<path class="st0" d="M1519.8,3243.5c-0.1,0.6,0.1,0.9,0,1.2c-0.9,2.5-2.9,3.7-5.4,4.2c-1,0.2-2.1,0.3-2.4,1.5
		c-0.2,0.9,0.3,1.5,0.9,2c1,0.8,2,0.6,3,0c0.3-0.2,0.7-0.4,1.3-0.8c-0.2,2.8-1.2,5-2.4,7.1c-0.6,1-1.3,2-1.9,3
		c-0.2,0.4-0.5,0.8-1,0.5c-0.5-0.2-0.3-0.7-0.2-1.1c1.6-6.7-0.2-12.5-4.8-17.4c-4.3-4.5-9.7-6.5-15.9-5.8c-0.3,0-0.6,0-1.3,0
		c2.1-1.8,4.3-2.5,6.5-3.2c1.8-0.5,3.5-1.1,5.4-1.2c0.4,0,1.1-0.1,1.4,0.4c0.3,0.5-0.3,0.7-0.4,1.1c-0.1,0.3-0.3,0.5-0.4,0.8
		c-0.4,1.2,0.2,2.1,1.5,1.8c1.5-0.3,2.3-1.4,2.6-2.9c0.1-0.7,0.4-1.1,1.1-1c5,0.1,9.1-1.7,12.3-5.6c1.6,4.5-0.6,10-6.8,14.2
		c0.9,0.5,1.6,0.3,2.4-0.1c1.6-0.7,3-1.8,4.2-3c0.4-0.4,0.6-0.9,1.3-0.9C1520.6,3240.4,1519.8,3241.7,1519.8,3243.5z"/>
	<path class="st0" d="M1503.3,3271.4c-0.1-1.8-0.3-3.6,1.1-5.4c3.6-4.6,4-9.8,1.6-15.1c-2.6-5.4-7.2-8.1-13.1-8.3
		c-4-0.1-7.6,1.4-10.3,4.4c-1.3,1.5-2.9,1-4.3,0.9c-1-0.1-0.1-0.8,0.1-1.2c4.3-6.1,12.2-8.9,19.4-6.7c7.1,2.1,11.5,7.1,12.7,14.4
		c1.1,6.7-1.2,12.4-6.4,16.8C1503.9,3271.3,1503.8,3271.5,1503.3,3271.4z"/>
</g>
<g>
	<path class="st1" d="M1315.7,3279.5v-25.2h17.1v5.1h-11.3v5.4h9.3v4.7h-9.3v9.9L1315.7,3279.5L1315.7,3279.5z"/>
	<path class="st1" d="M1333.1,3279.5v-25.2h11.4c4.8,0,8.2,4.3,8.2,8.5c0,3.1-1.6,5.9-4.1,7.3l5.8,9.4h-6.6l-5.1-8.1h-3.8v8.1
		L1333.1,3279.5L1333.1,3279.5z M1338.9,3266.3h5.3c1.4,0,2.5-1.5,2.5-3.5c0-2.1-1.4-3.4-2.7-3.4h-5.1L1338.9,3266.3L1338.9,3266.3z
		"/>
	<path class="st1" d="M1372.3,3274.3v5.1h-17.7v-25.2h17.4v5.1h-11.6v4.9h9.9v4.7h-9.9v5.4L1372.3,3274.3L1372.3,3274.3z"/>
	<path class="st1" d="M1392.5,3259.4h-7.7v20.1h-5.8v-20.1h-7.7v-5.1h21.2L1392.5,3259.4L1392.5,3259.4z"/>
	<path class="st1" d="M1410.4,3274.3v5.1h-17.7v-25.2h17.4v5.1h-11.6v4.9h9.9v4.7h-9.9v5.4L1410.4,3274.3L1410.4,3274.3z"/>
</g>
<g>
	<path class="st2" d="M1435.4,3254.8v4.7c-2.3-1.9-4.7-2.9-7.1-2.9c-2.7,0-5,1-6.8,2.9c-1.9,1.9-2.8,4.3-2.8,7.1
		c0,2.8,0.9,5.1,2.8,7c1.9,1.9,4.1,2.8,6.8,2.8c1.4,0,2.6-0.2,3.6-0.7c0.5-0.2,1.1-0.5,1.7-0.9c0.6-0.4,1.2-0.8,1.8-1.4v4.8
		c-2.3,1.3-4.6,1.9-7.1,1.9c-3.8,0-7-1.3-9.6-3.9c-2.6-2.6-4-5.8-4-9.6c0-3.3,1.1-6.3,3.3-8.9c2.7-3.2,6.2-4.8,10.6-4.8
		C1430.9,3252.9,1433.2,3253.5,1435.4,3254.8z"/>
	<path class="st2" d="M1441.7,3253.4v22.5h7.7v3.7h-11.7v-26.2H1441.7z"/>
	<path class="st2" d="M1454.5,3253.4v26.2h-4v-26.2H1454.5z"/>
	<path class="st2" d="M1477.6,3254.8v4.7c-2.3-1.9-4.7-2.9-7.1-2.9c-2.7,0-5,1-6.8,2.9c-1.9,1.9-2.8,4.3-2.8,7.1
		c0,2.8,0.9,5.1,2.8,7c1.9,1.9,4.1,2.8,6.8,2.8c1.4,0,2.6-0.2,3.6-0.7c0.5-0.2,1.1-0.5,1.7-0.9c0.6-0.4,1.2-0.8,1.8-1.4v4.8
		c-2.3,1.3-4.6,1.9-7.1,1.9c-3.8,0-7-1.3-9.6-3.9c-2.6-2.6-4-5.8-4-9.6c0-3.3,1.1-6.3,3.3-8.9c2.7-3.2,6.2-4.8,10.6-4.8
		C1473.2,3252.9,1475.4,3253.5,1477.6,3254.8z"/>
	<path class="st2" d="M1484.7,3263.9l10.2-10.5h5.3l-11.9,11.9l11.9,14.4h-5.3l-9.4-11.7l-0.8,0.8v10.9h-4v-26.2h4L1484.7,3263.9
		L1484.7,3263.9z"/>
</g>
<g>
	<path class="st3" d="M1319.4,3286.4l-0.7,0.4c-0.1-0.2-0.3-0.4-0.4-0.5c-0.1-0.1-0.3-0.1-0.5-0.1c-0.2,0-0.5,0.1-0.6,0.2
		c-0.2,0.1-0.2,0.3-0.2,0.5c0,0.3,0.2,0.5,0.6,0.7l0.6,0.2c0.5,0.2,0.8,0.4,1.1,0.7c0.2,0.3,0.3,0.6,0.3,1c0,0.5-0.2,1-0.5,1.3
		c-0.4,0.4-0.8,0.5-1.4,0.5c-0.5,0-0.9-0.2-1.3-0.5c-0.3-0.3-0.5-0.7-0.6-1.3l0.9-0.2c0,0.3,0.1,0.6,0.2,0.7
		c0.2,0.3,0.5,0.4,0.8,0.4c0.3,0,0.5-0.1,0.7-0.3c0.2-0.2,0.3-0.4,0.3-0.7c0-0.1,0-0.2,0-0.3c0-0.1-0.1-0.2-0.1-0.3
		c-0.1-0.1-0.2-0.2-0.3-0.2c-0.1-0.1-0.2-0.1-0.4-0.2l-0.6-0.2c-0.8-0.3-1.2-0.8-1.2-1.5c0-0.4,0.2-0.8,0.5-1.1
		c0.3-0.3,0.8-0.5,1.3-0.5C1318.5,3285.4,1319,3285.8,1319.4,3286.4z"/>
	<path class="st3" d="M1323.1,3285.6v3.6c0,0.5,0.1,0.9,0.2,1.1c0.2,0.3,0.6,0.5,1,0.5c0.5,0,0.8-0.2,1.1-0.5
		c0.2-0.2,0.2-0.6,0.2-1.1v-3.6h0.9v3.8c0,0.6-0.2,1.1-0.6,1.5c-0.4,0.4-1,0.7-1.6,0.7s-1.2-0.2-1.6-0.7c-0.4-0.4-0.6-0.9-0.6-1.5
		v-3.8H1323.1z"/>
	<path class="st3" d="M1332.8,3290h-2.5l-0.7,1.4h-1l2.9-6.3l2.8,6.3h-1L1332.8,3290z M1332.4,3289.2l-0.9-2l-0.9,2H1332.4z"/>
	<path class="st3" d="M1344,3286.4h-2.4v1.4h2.3v0.8h-2.3v2h2.4v0.8h-3.3v-5.9h3.3V3286.4z"/>
	<path class="st3" d="M1346.7,3291.5v-6.3l4.3,4.5v-4.1h0.9v6.3l-4.3-4.5v4.1L1346.7,3291.5L1346.7,3291.5z"/>
	<path class="st3" d="M1356.5,3286.4v5.1h-0.9v-5.1h-1.4v-0.8h3.6v0.8H1356.5z"/>
	<path class="st3" d="M1362.3,3288.9l1.8,2.5h-1.1l-1.7-2.4h-0.2v2.4h-0.9v-5.9h1c0.8,0,1.3,0.1,1.7,0.4c0.4,0.3,0.6,0.8,0.6,1.3
		c0,0.4-0.1,0.8-0.4,1.1C1363,3288.7,1362.6,3288.9,1362.3,3288.9z M1361.1,3288.3h0.3c0.8,0,1.3-0.3,1.3-1c0-0.6-0.4-0.9-1.2-0.9
		h-0.3L1361.1,3288.3L1361.1,3288.3z"/>
	<path class="st3" d="M1369.8,3286.4h-2.4v1.4h2.3v0.8h-2.3v2h2.4v0.8h-3.3v-5.9h3.3V3286.4z"/>
	<path class="st3" d="M1375.6,3288.4h2.4v0.2c0,0.4-0.1,0.8-0.2,1.2c-0.1,0.3-0.3,0.6-0.5,0.9c-0.5,0.6-1.2,0.9-2.1,0.9
		c-0.8,0-1.5-0.3-2.1-0.9c-0.6-0.6-0.9-1.3-0.9-2.2c0-0.9,0.3-1.6,0.9-2.2c0.6-0.6,1.3-0.9,2.2-0.9c0.5,0,0.9,0.1,1.3,0.3
		c0.4,0.2,0.8,0.5,1.1,0.9l-0.6,0.6c-0.5-0.6-1.1-1-1.8-1c-0.6,0-1.2,0.2-1.6,0.6c-0.4,0.4-0.6,1-0.6,1.6c0,0.7,0.2,1.2,0.7,1.6
		c0.4,0.4,0.9,0.6,1.4,0.6c0.4,0,0.8-0.1,1.2-0.4c0.3-0.3,0.5-0.7,0.6-1.1h-1.5L1375.6,3288.4L1375.6,3288.4z"/>
	<path class="st3" d="M1383.9,3290h-2.5l-0.7,1.4h-1l2.9-6.3l2.8,6.3h-1L1383.9,3290z M1383.6,3289.2l-0.9-2l-0.9,2H1383.6z"/>
	<path class="st3" d="M1395.1,3286.4h-2.4v1.4h2.3v0.8h-2.3v2h2.4v0.8h-3.3v-5.9h3.3V3286.4z"/>
	<path class="st3" d="M1397.6,3291.5l1.2-6.4l2,4.6l2.1-4.6l1.1,6.4h-0.9l-0.6-3.6l-1.8,3.8l-1.7-3.8l-0.6,3.6H1397.6z"/>
	<path class="st3" d="M1414.4,3290h-2.5l-0.7,1.4h-1l2.9-6.3l2.8,6.3h-1L1414.4,3290z M1414,3289.2l-0.9-2l-0.9,2H1414z"/>
	<path class="st3" d="M1419.2,3289.1v2.4h-0.9v-5.9h1c0.5,0,0.9,0,1.1,0.1c0.3,0.1,0.5,0.2,0.7,0.4c0.3,0.3,0.5,0.8,0.5,1.3
		c0,0.5-0.2,1-0.5,1.3c-0.4,0.3-0.9,0.5-1.5,0.5L1419.2,3289.1L1419.2,3289.1z M1419.2,3288.2h0.3c0.8,0,1.2-0.3,1.2-0.9
		c0-0.6-0.4-0.9-1.3-0.9h-0.3L1419.2,3288.2L1419.2,3288.2z"/>
	<path class="st3" d="M1427.4,3286.4h-2.4v1.4h2.3v0.8h-2.3v2h2.4v0.8h-3.3v-5.9h3.3V3286.4z"/>
	<path class="st3" d="M1430.1,3291.5v-6.3l4.3,4.5v-4.1h0.9v6.3l-4.3-4.5v4.1L1430.1,3291.5L1430.1,3291.5z"/>
	<path class="st3" d="M1441.8,3290h-2.5l-0.7,1.4h-1l2.9-6.3l2.8,6.3h-1L1441.8,3290z M1441.5,3289.2l-0.9-2l-0.9,2H1441.5z"/>
	<path class="st3" d="M1449.1,3286.4l-0.7,0.4c-0.1-0.2-0.3-0.4-0.4-0.5c-0.1-0.1-0.3-0.1-0.5-0.1c-0.2,0-0.5,0.1-0.6,0.2
		c-0.2,0.1-0.2,0.3-0.2,0.5c0,0.3,0.2,0.5,0.6,0.7l0.6,0.2c0.5,0.2,0.8,0.4,1.1,0.7c0.2,0.3,0.3,0.6,0.3,1c0,0.5-0.2,1-0.5,1.3
		c-0.4,0.4-0.8,0.5-1.4,0.5c-0.5,0-0.9-0.2-1.3-0.5c-0.3-0.3-0.5-0.7-0.6-1.3l0.9-0.2c0,0.3,0.1,0.6,0.2,0.7
		c0.2,0.3,0.5,0.4,0.8,0.4c0.3,0,0.5-0.1,0.7-0.3s0.3-0.4,0.3-0.7c0-0.1,0-0.2,0-0.3c0-0.1-0.1-0.2-0.1-0.3
		c-0.1-0.1-0.2-0.2-0.3-0.2c-0.1-0.1-0.2-0.1-0.4-0.2l-0.6-0.2c-0.8-0.3-1.2-0.8-1.2-1.5c0-0.4,0.2-0.8,0.5-1.1
		c0.3-0.3,0.8-0.5,1.3-0.5C1448.2,3285.4,1448.7,3285.8,1449.1,3286.4z"/>
	<path class="st3" d="M1456.8,3285.6v3.6c0,0.5,0.1,0.9,0.2,1.1c0.2,0.3,0.6,0.5,1,0.5c0.5,0,0.8-0.2,1-0.5c0.2-0.2,0.2-0.6,0.2-1.1
		v-3.6h0.9v3.8c0,0.6-0.2,1.1-0.6,1.5c-0.4,0.4-1,0.7-1.6,0.7c-0.6,0-1.2-0.2-1.6-0.7c-0.4-0.4-0.6-0.9-0.6-1.5v-3.8H1456.8z"/>
	<path class="st3" d="M1463,3291.5l1.2-6.4l2,4.6l2.1-4.6l1.1,6.4h-0.9l-0.6-3.6l-1.8,3.8l-1.7-3.8l-0.6,3.6H1463z"/>
	<path class="st3" d="M1480.7,3285.9v1.1c-0.5-0.4-1-0.6-1.6-0.6c-0.6,0-1.1,0.2-1.5,0.7c-0.4,0.4-0.6,1-0.6,1.6
		c0,0.6,0.2,1.1,0.6,1.6c0.4,0.4,0.9,0.6,1.5,0.6c0.3,0,0.6-0.1,0.8-0.2c0.1-0.1,0.2-0.1,0.4-0.2s0.3-0.2,0.4-0.3v1.1
		c-0.5,0.3-1,0.4-1.6,0.4c-0.8,0-1.6-0.3-2.2-0.9c-0.6-0.6-0.9-1.3-0.9-2.2c0-0.8,0.2-1.4,0.7-2c0.6-0.7,1.4-1.1,2.4-1.1
		C1479.7,3285.4,1480.2,3285.6,1480.7,3285.9z"/>
	<path class="st3" d="M1484.3,3285.6v5.1h1.7v0.8h-2.6v-5.9H1484.3z"/>
	<path class="st3" d="M1489.4,3285.6v5.9h-0.9v-5.9H1489.4z"/>
	<path class="st3" d="M1496.7,3285.9v1.1c-0.5-0.4-1-0.6-1.6-0.6c-0.6,0-1.1,0.2-1.5,0.7c-0.4,0.4-0.6,1-0.6,1.6
		c0,0.6,0.2,1.1,0.6,1.6c0.4,0.4,0.9,0.6,1.5,0.6c0.3,0,0.6-0.1,0.8-0.2c0.1-0.1,0.2-0.1,0.4-0.2s0.3-0.2,0.4-0.3v1.1
		c-0.5,0.3-1,0.4-1.6,0.4c-0.8,0-1.6-0.3-2.2-0.9c-0.6-0.6-0.9-1.3-0.9-2.2c0-0.8,0.2-1.4,0.7-2c0.6-0.7,1.4-1.1,2.4-1.1
		C1495.7,3285.4,1496.2,3285.6,1496.7,3285.9z"/>
	<path class="st3" d="M1500.5,3287.9l2.3-2.4h1.2l-2.7,2.7l2.7,3.2h-1.2l-2.1-2.6l-0.2,0.2v2.4h-0.9v-5.9h0.9L1500.5,3287.9
		L1500.5,3287.9z"/>
</g>
</svg>
